<mxfile host="app.diagrams.net" agent="Mozilla/5.0 (Macintosh; Intel Mac OS X 10_15_7) AppleWebKit/537.36 (KHTML, like Gecko) Chrome/137.0.0.0 Safari/537.36" version="27.1.6">
  <diagram name="Page-1" id="7Xq46UEuC-JU0hLwkkQa">
    <mxGraphModel dx="1185" dy="620" grid="1" gridSize="10" guides="1" tooltips="1" connect="1" arrows="1" fold="1" page="1" pageScale="1" pageWidth="850" pageHeight="1100" math="0" shadow="0">
      <root>
        <mxCell id="0" />
        <mxCell id="1" parent="0" />
        <mxCell id="7t_1KPzHrTVTQA51yB6z-1" value="" style="rounded=0;whiteSpace=wrap;html=1;" vertex="1" parent="1">
          <mxGeometry x="40" y="40" width="260" height="180" as="geometry" />
        </mxCell>
        <mxCell id="7t_1KPzHrTVTQA51yB6z-2" value="DOCKER / MONGO DB | 0.0.0.0:27017" style="rounded=0;whiteSpace=wrap;html=1;" vertex="1" parent="1">
          <mxGeometry x="40" y="40" width="260" height="30" as="geometry" />
        </mxCell>
        <mxCell id="7t_1KPzHrTVTQA51yB6z-3" value="clientes" style="shape=cylinder3;whiteSpace=wrap;html=1;boundedLbl=1;backgroundOutline=1;size=15;" vertex="1" parent="1">
          <mxGeometry x="140" y="90" width="60" height="90" as="geometry" />
        </mxCell>
        <mxCell id="7t_1KPzHrTVTQA51yB6z-4" value="" style="rounded=0;whiteSpace=wrap;html=1;" vertex="1" parent="1">
          <mxGeometry x="400" y="40" width="260" height="180" as="geometry" />
        </mxCell>
        <mxCell id="7t_1KPzHrTVTQA51yB6z-5" value="APLICACAO LOCAL / HOTEL SERVER | 8080" style="rounded=0;whiteSpace=wrap;html=1;" vertex="1" parent="1">
          <mxGeometry x="400" y="40" width="260" height="30" as="geometry" />
        </mxCell>
        <mxCell id="7t_1KPzHrTVTQA51yB6z-11" style="edgeStyle=orthogonalEdgeStyle;rounded=0;orthogonalLoop=1;jettySize=auto;html=1;" edge="1" parent="1" source="7t_1KPzHrTVTQA51yB6z-7" target="7t_1KPzHrTVTQA51yB6z-3">
          <mxGeometry relative="1" as="geometry" />
        </mxCell>
        <mxCell id="7t_1KPzHrTVTQA51yB6z-7" value="hotel-server" style="rounded=0;whiteSpace=wrap;html=1;" vertex="1" parent="1">
          <mxGeometry x="470" y="105" width="120" height="60" as="geometry" />
        </mxCell>
        <mxCell id="7t_1KPzHrTVTQA51yB6z-9" style="edgeStyle=orthogonalEdgeStyle;rounded=0;orthogonalLoop=1;jettySize=auto;html=1;entryX=1;entryY=0.5;entryDx=0;entryDy=0;" edge="1" parent="1" source="7t_1KPzHrTVTQA51yB6z-8" target="7t_1KPzHrTVTQA51yB6z-4">
          <mxGeometry relative="1" as="geometry" />
        </mxCell>
        <mxCell id="7t_1KPzHrTVTQA51yB6z-8" value="Cliente" style="shape=umlActor;verticalLabelPosition=bottom;verticalAlign=top;html=1;outlineConnect=0;" vertex="1" parent="1">
          <mxGeometry x="770" y="100" width="30" height="60" as="geometry" />
        </mxCell>
      </root>
    </mxGraphModel>
  </diagram>
</mxfile>
